<?xml version="1.0" standalone="no"?>
<!DOCTYPE svg PUBLIC "-//W3C//DTD SVG 20010904//EN"
 "http://www.w3.org/TR/2001/REC-SVG-20010904/DTD/svg10.dtd">
<svg version="1.0" xmlns="http://www.w3.org/2000/svg"
 width="1024.000000pt" height="1024.000000pt" viewBox="0 0 1024.000000 1024.000000"
 preserveAspectRatio="xMidYMid meet">

<g transform="translate(0.000000,1024.000000) scale(0.100000,-0.100000)"
fill="#000000" stroke="none">
<path d="M4210 8664 c-188 -49 -372 -199 -460 -374 -75 -151 -90 -245 -90
-577 l0 -262 -617 -3 -618 -3 -74 -27 c-91 -33 -160 -78 -251 -164 -119 -113
-179 -212 -221 -364 l-24 -85 -3 -1685 c-2 -1249 0 -1708 8 -1775 26 -197 98
-345 235 -481 69 -69 98 -90 186 -133 68 -33 133 -57 187 -67 68 -14 82 -20
77 -33 -42 -108 -52 -286 -21 -401 98 -374 468 -595 836 -500 129 33 192 70
300 179 108 109 156 188 191 316 28 104 24 280 -9 365 -12 30 -22 55 -22 56 0
0 545 0 1210 0 1072 -1 1209 -3 1204 -16 -74 -177 -46 -442 65 -603 148 -216
335 -319 575 -319 97 1 225 31 309 73 160 81 304 262 352 444 30 113 16 306
-29 397 -16 32 -12 38 27 38 103 0 290 88 396 186 119 110 194 244 240 425 21
82 21 90 21 1814 0 1680 -1 1734 -19 1807 -26 100 -60 165 -138 266 -111 143
-224 222 -378 267 l-90 26 -640 2 -640 2 -5 345 c-6 376 -6 374 -71 503 -68
138 -177 244 -319 311 -138 66 -137 66 -920 65 -581 0 -715 -3 -760 -15z m835
-479 c474 0 635 -3 651 -12 40 -23 83 -83 99 -136 12 -43 15 -103 13 -318 l-3
-264 -832 -3 -833 -3 0 276 c0 166 4 293 11 319 14 56 61 113 113 138 33 15
51 17 96 11 30 -4 339 -8 685 -8z m1456 -1462 c60 -22 133 -68 194 -121 l38
-34 -39 -39 c-201 -207 -317 -314 -352 -324 -59 -18 -96 -41 -135 -84 -106
-117 -58 -316 93 -379 44 -18 132 -12 183 12 56 27 131 99 177 169 24 37 107
126 204 219 l164 158 35 -39 c48 -53 82 -115 102 -184 14 -48 16 -96 13 -300
-4 -229 -5 -245 -29 -307 -14 -36 -44 -94 -68 -129 -62 -90 -1421 -1454 -1476
-1481 -55 -26 -133 -26 -186 0 -23 12 -245 224 -547 522 -279 276 -514 511
-523 522 -56 71 -77 153 -59 228 15 62 16 63 895 946 576 580 589 591 739 644
l81 29 220 -4 c194 -2 227 -5 276 -24z m-3213 -4122 c119 -61 170 -163 138
-274 -44 -150 -220 -225 -356 -151 -191 104 -155 375 60 445 37 12 114 3 158
-20z m3690 0 c45 -23 99 -81 118 -127 20 -47 17 -141 -5 -189 -96 -207 -414
-167 -460 57 -39 187 175 347 347 259z"/>
</g>
</svg>
